<?xml version="1.0" encoding="UTF-8" standalone="no"?>
<!-- Created with Inkscape (http://www.inkscape.org/) -->

<svg
   width="50"
   height="50"
   viewBox="0 0 13.229167 13.229167"
   version="1.1"
   id="svg1"
   inkscape:version="1.4 (86a8ad7, 2024-10-11)"
   sodipodi:docname="night.svg"
   inkscape:export-filename="..\assets\night.png"
   inkscape:export-xdpi="96"
   inkscape:export-ydpi="96"
   xmlns:inkscape="http://www.inkscape.org/namespaces/inkscape"
   xmlns:sodipodi="http://sodipodi.sourceforge.net/DTD/sodipodi-0.dtd"
   xmlns="http://www.w3.org/2000/svg"
   xmlns:svg="http://www.w3.org/2000/svg">
  <sodipodi:namedview
     id="namedview1"
     pagecolor="#ffffff"
     bordercolor="#999999"
     borderopacity="1"
     inkscape:showpageshadow="2"
     inkscape:pageopacity="0"
     inkscape:pagecheckerboard="0"
     inkscape:deskcolor="#d1d1d1"
     inkscape:document-units="mm"
     inkscape:zoom="3.0135764"
     inkscape:cx="-54.254473"
     inkscape:cy="44.46544"
     inkscape:window-width="1368"
     inkscape:window-height="842"
     inkscape:window-x="-6"
     inkscape:window-y="-6"
     inkscape:window-maximized="1"
     inkscape:current-layer="layer1"
     showgrid="false" />
  <defs
     id="defs1" />
  <g
     inkscape:label="Layer 1"
     inkscape:groupmode="layer"
     id="layer1">
    <rect
       style="fill:#01004f;stroke:none;stroke-width:0.264583;stroke-linecap:round;stroke-linejoin:round;fill-opacity:1"
       id="rect1"
       width="13.229166"
       height="13.229166"
       x="0"
       y="0" />
    <path
       sodipodi:type="star"
       style="fill:#ffff00;fill-opacity:1;stroke:none;stroke-width:0.699514;stroke-linecap:round;stroke-linejoin:round;stroke-dasharray:none"
       id="use3"
       inkscape:flatsided="false"
       sodipodi:sides="5"
       sodipodi:cx="-8.2968283"
       sodipodi:cy="11.062437"
       sodipodi:r1="4.2288694"
       sodipodi:r2="2.1144347"
       sodipodi:arg1="0.84415399"
       sodipodi:arg2="1.4724725"
       inkscape:rounded="0"
       inkscape:randomized="0"
       d="m -5.4873203,14.223133 -2.6019435,-1.056474 -2.3453802,1.544488 0.200722,-2.801064 -2.193657,-1.753316 2.7259967,-0.6746781 0.9896251,-2.6280963 1.4840365,2.3840896 2.8052791,0.129063 -1.8088115,2.1481268 z"
       inkscape:transform-center-x="0.044298621"
       inkscape:transform-center-y="-0.033274438"
       transform="matrix(0.18774068,-0.01542168,0.01554417,0.1892318,3.912078,0.24624211)" />
    <path
       sodipodi:type="star"
       style="fill:#ffff00;fill-opacity:1;stroke:none;stroke-width:0.583007;stroke-linecap:round;stroke-linejoin:round;stroke-dasharray:none"
       id="use4"
       inkscape:flatsided="false"
       sodipodi:sides="5"
       sodipodi:cx="-8.2968283"
       sodipodi:cy="11.062437"
       sodipodi:r1="4.2288694"
       sodipodi:r2="2.1144347"
       sodipodi:arg1="0.84415399"
       sodipodi:arg2="1.4724725"
       inkscape:rounded="0"
       inkscape:randomized="0"
       d="m -5.4873203,14.223133 -2.6019435,-1.056474 -2.3453802,1.544488 0.200722,-2.801064 -2.193657,-1.753316 2.7259967,-0.6746781 0.9896251,-2.6280963 1.4840365,2.3840896 2.8052791,0.129063 -1.8088115,2.1481268 z"
       inkscape:transform-center-x="0.028985783"
       inkscape:transform-center-y="-0.063774914"
       transform="matrix(0.19632739,-0.11191405,0.11274027,0.19799668,5.2781368,2.4677431)" />
    <path
       sodipodi:type="star"
       style="fill:#ffff00;fill-opacity:1;stroke:none;stroke-width:1.40198;stroke-linecap:round;stroke-linejoin:round;stroke-dasharray:none"
       id="use7"
       inkscape:flatsided="false"
       sodipodi:sides="5"
       sodipodi:cx="-8.2968283"
       sodipodi:cy="11.062437"
       sodipodi:r1="4.2288694"
       sodipodi:r2="2.1144347"
       sodipodi:arg1="0.84415399"
       sodipodi:arg2="1.4724725"
       inkscape:rounded="0"
       inkscape:randomized="0"
       d="m -5.4873203,14.223133 -2.6019435,-1.056474 -2.3453802,1.544488 0.200722,-2.801064 -2.193657,-1.753316 2.7259967,-0.6746781 0.9896251,-2.6280963 1.4840365,2.3840896 2.8052791,0.129063 -1.8088115,2.1481268 z"
       inkscape:transform-center-x="0.012082335"
       inkscape:transform-center-y="-0.02645739"
       transform="matrix(-0.00911932,-0.09335056,0.09448789,-0.00915323,1.009728,6.2211681)" />
    <path
       sodipodi:type="star"
       style="fill:#ffff00;fill-opacity:1;stroke:none;stroke-width:0.835186;stroke-linecap:round;stroke-linejoin:round;stroke-dasharray:none"
       id="use8"
       inkscape:flatsided="false"
       sodipodi:sides="5"
       sodipodi:cx="-8.2968283"
       sodipodi:cy="11.062437"
       sodipodi:r1="4.2288694"
       sodipodi:r2="2.1144347"
       sodipodi:arg1="0.84415399"
       sodipodi:arg2="1.4724725"
       inkscape:rounded="0"
       inkscape:randomized="0"
       d="m -5.4873203,14.223133 -2.6019435,-1.056474 -2.3453802,1.544488 0.200722,-2.801064 -2.193657,-1.753316 2.7259967,-0.6746781 0.9896251,-2.6280963 1.4840365,2.3840896 2.8052791,0.129063 -1.8088115,2.1481268 z"
       inkscape:transform-center-x="-0.021159958"
       inkscape:transform-center-y="-0.14689786"
       transform="matrix(0.04014687,0.14948322,-0.15744418,0.03872479,5.4122185,9.9815031)" />
    <path
       sodipodi:type="star"
       style="fill:#ffff00;fill-opacity:1;stroke:none;stroke-width:1.17008;stroke-linecap:round;stroke-linejoin:round;stroke-dasharray:none"
       id="use8-1"
       inkscape:flatsided="false"
       sodipodi:sides="5"
       sodipodi:cx="-8.2968283"
       sodipodi:cy="11.062437"
       sodipodi:r1="4.2288694"
       sodipodi:r2="2.1144347"
       sodipodi:arg1="0.84415399"
       sodipodi:arg2="1.4724725"
       inkscape:rounded="0"
       inkscape:randomized="0"
       d="m -5.4873203,14.223133 -2.6019435,-1.056474 -2.3453802,1.544488 0.200722,-2.801064 -2.193657,-1.753316 2.7259967,-0.6746781 0.9896251,-2.6280963 1.4840365,2.3840896 2.8052791,0.129063 -1.8088115,2.1481268 z"
       inkscape:transform-center-x="-0.067137808"
       inkscape:transform-center-y="-0.0033529276"
       transform="matrix(-0.03617678,0.10420598,-0.10860418,-0.04052045,11.054266,9.8407097)" />
    <path
       id="path8"
       style="fill:#ffff00;fill-opacity:1;stroke:none;stroke-width:0.132292;stroke-linecap:round;stroke-linejoin:round;stroke-dasharray:none;stroke-opacity:1"
       d="M 7.5549725,4.5059771 A 2.2905393,2.2897827 0 0 0 9.5705111,5.7207825 2.2905393,2.2897827 0 0 0 11.861203,3.4314594 2.2905393,2.2897827 0 0 0 9.5705111,1.1415246 2.2905393,2.2897827 0 0 0 9.4540771,1.1501074 1.9318171,1.9311789 0 0 1 10.526498,2.8788919 1.9318171,1.9311789 0 0 1 8.5943017,4.8098314 1.9318171,1.9311789 0 0 1 7.5549725,4.5059771 Z" />
    <rect
       style="fill:#333333;fill-opacity:1;stroke:none;stroke-width:0.132292;stroke-linecap:round;stroke-linejoin:round;stroke-dasharray:none;stroke-opacity:1"
       id="rect2"
       width="13.229165"
       height="2.2106271"
       x="0"
       y="11.018538" />
    <path
       style="fill:#4d4d4d;fill-opacity:1;stroke:none;stroke-width:0.132292;stroke-linecap:round;stroke-linejoin:round;stroke-dasharray:none;stroke-opacity:1"
       d="M 5.1079326,11.018538 7.7857446,8.1566542 9.8489761,10.614973 11.604918,9.2541192 13.229165,11.018538 Z"
       id="path6" />
  </g>
</svg>
